<svg width="31" height="33" xmlns="http://www.w3.org/2000/svg">

 <g>
  <title>background</title>
  <rect fill="none" id="canvas_background" height="35" width="33" y="-1" x="-1"/>
 </g>
 <g>
  <title>Layer 1</title>
  <path id="svg_1" fill="white" d="m0.87647,6.73727l0,25.87113l3.71392,0l0,-18.7338l0.24001,0l7.63,18.6959l3.0823,0l7.6299,-18.6833l0.24,0l0,18.7212l3.714,0l0,-25.87113l-4.7372,0l-8.2363,20.11073l-0.3032,0l-8.23629,-20.11073l-4.73715,0l0.00001,0z"/>
  <path id="svg_2" fill="white" d="m40.8611,33c4.2319,0 7.2257,-2.0843 8.0847,-5.2424l-3.5749,-0.6443c-0.6822,1.8317 -2.3244,2.7665 -4.4719,2.7665c-3.2339,0 -5.4066,-2.097 -5.5077,-5.8362l13.7946,0l0,-1.339c0,-7.011 -4.194,-9.7522 -8.5901,-9.7522c-5.4066,0 -8.969,4.1182 -8.969,10.0806c0,6.0257 3.5118,9.967 9.2343,9.967zm-5.4572,-11.786c0.1516,-2.7539 2.1475,-5.1414 5.2172,-5.1414c2.9307,0 4.8508,2.1728 4.8635,5.1414l-10.0807,0z"/>
  <path id="svg_3" fill="white" d="m67.9165,17.9422c-0.7832,-3.0191 -3.1454,-4.9898 -7.3394,-4.9898c-4.3834,0 -7.491,2.3117 -7.491,5.7477c0,2.7539 1.6675,4.5856 5.3056,5.3941l3.2844,0.72c1.8696,0.4169 2.7413,1.2506 2.7413,2.4633c0,1.5033 -1.6044,2.6781 -4.0803,2.6781c-2.2612,0 -3.7139,-0.9727 -4.1687,-2.8802l-3.6507,0.5558c0.6316,3.436 3.4865,5.3688 7.8447,5.3688c4.6866,0 7.9331,-2.4886 7.9331,-6.0004c0,-2.7412 -1.7433,-4.434 -5.3056,-5.2551l-3.0823,-0.7074c-2.1349,-0.5053 -3.057,-1.2253 -3.0444,-2.5391c-0.0126,-1.4906 1.6043,-2.5517 3.7518,-2.5517c2.3496,0 3.436,1.3011 3.8782,2.6023l3.4233,-0.6064z"/>
  <path id="svg_4" fill="white" d="m81.5058,13.2051l-3.9792,0l0,-4.64877l-3.7771,0l0,4.64877l-2.8423,0l0,3.0317l2.8423,0l0,11.4576c-0.0126,3.5244 2.6781,5.2298 5.6593,5.1666c1.2001,-0.0126 2.0086,-0.24 2.4507,-0.4042l-0.6821,-3.1202c-0.2527,0.0505 -0.7201,0.1642 -1.3264,0.1642c-1.2254,0 -2.3244,-0.4042 -2.3244,-2.5896l0,-10.6744l3.9792,0l0,-3.0317z"/>
  <path id="svg_5" fill="white" d="m93.6487,33c5.4698,0 9.0443,-4.0045 9.0443,-10.0049c0,-6.0382 -3.5745,-10.0427 -9.0443,-10.0427c-5.4698,0 -9.0448,4.0045 -9.0448,10.0427c0,6.0004 3.575,10.0049 9.0448,10.0049zm0.0126,-3.1707c-3.5749,0 -5.2424,-3.1202 -5.2424,-6.8468c0,-3.7139 1.6675,-6.872 5.2424,-6.872c3.5497,0 5.2172,3.1581 5.2172,6.872c0,3.7266 -1.6675,6.8468 -5.2172,6.8468z"/>
  <path id="svg_6" fill="white" d="m106.785,8.8932l1.044,0l0,-3.36864l1.887,0c0.075,0 0.147,0 0.219,-0.00421l1.819,3.37285l1.212,0l-1.949,-3.56233c1.099,-0.37476 1.613,-1.27166 1.613,-2.417c0,-1.52431 -0.91,-2.64438 -2.931,-2.64438l-2.914,0l0,8.62371zm1.044,-4.31185l0,-3.38548l1.836,0c1.398,0 1.937,0.68214 1.937,1.718c0,1.03586 -0.539,1.66748 -1.92,1.66748l-1.853,0z"/>
  <path id="svg_7" fill="white" d="m118.311,6.24882c0,1.21271 -0.926,1.76853 -1.667,1.76853c-0.826,0 -1.415,-0.60635 -1.415,-1.54957l0,-4.04236l-0.994,0l0,4.10973c0,1.65064 0.876,2.44227 2.088,2.44227c0.977,0 1.617,-0.52214 1.921,-1.17903l0.067,0l0,1.09481l0.994,0l0,-6.46778l-0.994,0l0,3.8234z"/>
  <path id="svg_8" fill="white" d="m125.706,3.87393c-0.311,-0.91795 -1.01,-1.53273 -2.29,-1.53273c-1.365,0 -2.375,0.77479 -2.375,1.86959c0,0.89269 0.53,1.49063 1.718,1.76854l1.078,0.25265c0.652,0.15159 0.96,0.46318 0.96,0.90953c0,0.55582 -0.59,1.01059 -1.516,1.01059c-0.813,0 -1.322,-0.3495 -1.499,-1.04428l-0.944,0.23581c0.232,1.09901 1.137,1.68432 2.46,1.68432c1.503,0 2.526,-0.82111 2.526,-1.93697c0,-0.90111 -0.564,-1.46957 -1.718,-1.75169l-0.96,-0.23581c-0.766,-0.18948 -1.112,-0.44634 -1.112,-0.94321c0,-0.55583 0.59,-0.96007 1.382,-0.96007c0.867,0 1.225,0.48003 1.397,0.92638l0.893,-0.25265z"/>
  <path id="svg_9" fill="white" d="m131.901,3.87393c-0.311,-0.91795 -1.01,-1.53273 -2.29,-1.53273c-1.365,0 -2.375,0.77479 -2.375,1.86959c0,0.89269 0.53,1.49063 1.718,1.76854l1.078,0.25265c0.652,0.15159 0.96,0.46318 0.96,0.90953c0,0.55582 -0.59,1.01059 -1.516,1.01059c-0.813,0 -1.322,-0.3495 -1.499,-1.04428l-0.943,0.23581c0.231,1.09901 1.137,1.68432 2.459,1.68432c1.503,0 2.526,-0.82111 2.526,-1.93697c0,-0.90111 -0.564,-1.46957 -1.718,-1.75169l-0.96,-0.23581c-0.766,-0.18948 -1.112,-0.44634 -1.112,-0.94321c0,-0.55583 0.59,-0.96007 1.382,-0.96007c0.867,0 1.225,0.48003 1.398,0.92638l0.892,-0.25265z"/>
  <path id="svg_10" fill="white" d="m133.515,8.8932l0.994,0l0,-6.46778l-0.994,0l0,6.46778zm0.505,-7.54575c0.388,0 0.708,-0.30317 0.708,-0.67372c0,-0.37055 -0.32,-0.67373 -0.708,-0.67373c-0.387,0 -0.707,0.30318 -0.707,0.67373c0,0.37055 0.32,0.67372 0.707,0.67372z"/>
  <path id="svg_11" fill="white" d="m138.232,9.04479c1.129,0 1.718,-0.60636 1.92,-1.02744l0.051,0l0,0.87585l0.994,0l0,-4.26133c0,-2.05486 -1.567,-2.29067 -2.392,-2.29067c-0.977,0 -2.089,0.33687 -2.594,1.51589l0.943,0.33686c0.219,-0.47161 0.737,-0.9769 1.685,-0.9769c0.913,0 1.364,0.48424 1.364,1.31377l0,0.03368c0,0.48003 -0.489,0.43792 -1.668,0.58951c-1.2,0.1558 -2.509,0.42108 -2.509,1.90328c0,1.26324 0.977,1.9875 2.206,1.9875zm0.152,-0.89269c-0.792,0 -1.364,-0.35371 -1.364,-1.04428c0,-0.75794 0.69,-0.99375 1.465,-1.0948c0.421,-0.05053 1.549,-0.16844 1.718,-0.37055l0,0.90953c0,0.80847 -0.64,1.6001 -1.819,1.6001z"/>
 </g>
</svg>